# xmcd
#
# Track frame offsets:
#	150
#	9994
#	18092
#	28543
#	37810
#	49445
#	57781
#	70709
#	81842
#	92815
#	104177
#	117732
#	129288
#	143846
#	153993
#	165287
#	176982
#	187256
#	204921
#	214262
#	227789
#	239367
#	249188
#	257896
#	270061
#	279256
#	290067
#	299770
#	312524
#	322164
#	328958
#	341691
#
# Disc length: 4709 seconds
#
# Revision: 1
# Processed by: cddbd v1.5.2PL0 Copyright (c) Steve Scherf et al.
# Submitted via: audiograbber 1.83.01
#
DISCID=e2126320
DTITLE=Various Artist - Twisted Tales From The Vinyl Wastelands - Vol. 9
DYEAR=1900
DGENRE=Country
TTITLE0=Sonny Cole - Truck Driver's Hell (Dee-Jay 1046)
TTITLE1=Carol Huff - Diesel Drivin' Devil (Popularity 725)
TTITLE2=Janette Monday - Johnny Cellars (Sur-Speed 216)
TTITLE3=Joe Prater - Highway 41 (Big Country 1424)
TTITLE4=Johnny Bond - Hell's Angels (Starday 776)
TTITLE5=Karl Jay - Unemployment Line (Marjon 503)
TTITLE6=Rocky Jones - Steel Men (Bam Bam 001)
TTITLE7=Jim Kandy - Cocaine Blues (K-Ark 637)
TTITLE8=Buck Ritchey - The Slave (GRC 111)
TTITLE9=The Lone X - Rubber Doll (Self 1001)
TTITLE10=Kelly Rogers - Topless Bathing Suit (American Artist 1002)
TTITLE11=Jackie Powers - Lonesome Heebie Jeebies (Star 703)
TTITLE12=Rocky Foster - Mule Skinner Blues (Custom 1014)
TTITLE13=Gene McKown - Peace Corps (Sims 228)
TTITLE14=Grandpa Jones - The All-American Boy (Decca 9-30823)
TTITLE15=Bob Hood - It's Nothin' To Me (Golden Crest 384)
TTITLE16=Ed Love - The Killers (Kay 33156)
TTITLE17=Johnny Guitar - Twenty Years (Gateway 6301)
TTITLE18=Elbert Sykes - Prisoner's Dream No. 11 (Gold Star 00208)
TTITLE19=The Hayseeders - Alcatraz (Coronation 103)
TTITLE20=Dee Mullins - Prison Grey (Merri 3004)
TTITLE21=Della Hicks - When de Debbil Taps You on the Back (Ruby 470)
TTITLE22=Jimmy Patton - Preacher and the Girl in the Night (Sims 227)
TTITLE23=Curley Day - Sorrow City 1963 (Day 2001)
TTITLE24=Elvin Walters - God's Talent Scout (Owe Man 103)
TTITLE25=Honey Bee - Our Stars (Ikon 519)
TTITLE26=Jackie Powers - New River Train (Star 703)
TTITLE27=Jimmy Duncan - Capital Punishment (Duncan 1000)
TTITLE28=Big Bill Johnson - Beer Belly Blues (Blue Angel 1014)
TTITLE29=Jay Luttrull - Country Boy (Flight 720)
TTITLE30=Bobby Ward - The Ice Man (Lakeside 108)
TTITLE31=Mike Debusk - Lovesick Blues (Cavalier 817)
EXTD=
EXTT0=
EXTT1=
EXTT2=
EXTT3=
EXTT4=
EXTT5=
EXTT6=
EXTT7=
EXTT8=
EXTT9=
EXTT10=
EXTT11=
EXTT12=
EXTT13=
EXTT14=
EXTT15=
EXTT16=
EXTT17=
EXTT18=
EXTT19=
EXTT20=
EXTT21=
EXTT22=
EXTT23=
EXTT24=
EXTT25=
EXTT26=
EXTT27=
EXTT28=
EXTT29=
EXTT30=
EXTT31=
PLAYORDER=
